<svg width="287" height="275" viewBox="0 0 287 275" fill="none" xmlns="http://www.w3.org/2000/svg">
<path fill-rule="evenodd" clip-rule="evenodd" d="M151.848 220.489V187.085L156.142 189.1L180.334 200.401L217.086 250.981L151.848 220.489Z" fill="#029CFE"/>
<path d="M208.244 179.51L217.086 250.981L180.334 200.401L177.052 173.901L176.476 169.191L208.244 179.51Z" fill="#035BFB"/>
<path fill-rule="evenodd" clip-rule="evenodd" d="M109.61 173.901L106.328 200.401L69.5762 250.981L78.419 179.519L110.187 169.191L109.61 173.901Z" fill="#BEBEBE"/>
<path d="M69.5762 250.981L106.328 200.401L130.521 189.1L134.824 187.085V220.489L69.5762 250.981Z" fill="#999999"/>
<path d="M184.978 149.53L203.203 130.019L262.663 110.697L213.502 163.329L181.734 153.001L184.978 149.53Z" fill="#FE01F9"/>
<path fill-rule="evenodd" clip-rule="evenodd" d="M172.324 124.042L191.958 97.0215L262.663 110.697L203.203 130.019L176.986 124.95L172.324 124.042Z" fill="#D504D5"/>
<path fill-rule="evenodd" clip-rule="evenodd" d="M130.407 109.885L128.109 114.036L108.475 87.016L143.336 24V86.5243L130.407 109.885Z" fill="#02A551"/>
<path d="M143.336 86.5243V24L178.187 87.016L158.553 114.036L156.255 109.885L143.336 86.5243Z" fill="#86C221"/>
<path d="M101.685 149.53L104.929 153.001L73.1606 163.329L24 110.697L83.46 130.019L101.685 149.53Z" fill="#F8C304"/>
<path fill-rule="evenodd" clip-rule="evenodd" d="M109.676 124.95L83.46 130.019L24 110.697L94.7051 97.0215L114.339 124.042L109.676 124.95Z" fill="#FECA06"/>
</svg>
