<svg width="248" height="72" viewBox="0 0 248 72" fill="none" xmlns="http://www.w3.org/2000/svg">
<path d="M172.398 24.4595C174.194 24.4596 175.925 24.6788 177.592 25.1168C179.259 25.5415 180.784 26.165 182.166 26.9879L179.814 32.1236C179.031 31.3938 177.991 30.8033 176.694 30.3521C175.412 29.8876 173.98 29.6558 172.398 29.6558C170.432 29.6558 168.665 30.0602 167.098 30.8697C165.545 31.666 164.312 32.7946 163.4 34.2545C162.503 35.7143 162.054 37.4261 162.054 39.3902C162.054 40.8501 162.303 42.1907 162.802 43.4117C163.315 44.6193 164.027 45.6681 164.938 46.5572C165.85 47.433 166.912 48.116 168.123 48.607C169.334 49.0847 170.66 49.3238 172.099 49.3238C173.723 49.3238 175.149 49.0183 176.374 48.4078C177.613 47.7841 178.575 46.9418 179.259 45.8804C179.943 44.8055 180.285 43.604 180.285 42.2769H171.116V37.4595H186.12V41.5797C186.12 44.0481 185.543 46.2514 184.389 48.189C183.235 50.1267 181.596 51.6533 179.473 52.7681C177.364 53.8829 174.878 54.44 172.014 54.44C169.705 54.44 167.575 54.0752 165.623 53.3453C163.671 52.6021 161.968 51.5606 160.515 50.2203C159.076 48.8798 157.95 47.3065 157.138 45.5015C156.34 43.6833 155.94 41.6993 155.94 39.5494C155.94 37.3994 156.34 35.4154 157.138 33.5972C157.936 31.7657 159.068 30.1664 160.536 28.7994C162.004 27.4324 163.742 26.3703 165.751 25.6138C167.76 24.8441 169.976 24.4595 172.398 24.4595ZM9.85352 24.7779C12.0619 24.7779 13.9503 25.1032 15.5176 25.7535C17.0989 26.3905 18.3098 27.2731 19.1504 28.4009C19.991 29.5157 20.4121 30.79 20.4121 32.2232C20.4121 33.3513 20.1618 34.4134 19.6631 35.4088C19.1787 36.404 18.5308 37.2668 17.7188 37.9966C17.4685 38.2216 17.2079 38.4241 16.9414 38.6099C17.6778 38.8402 18.372 39.1253 19.0225 39.4693C20.1908 40.0798 21.1168 40.903 21.8008 41.938C22.4847 42.96 22.8271 44.2081 22.8271 45.6812C22.8271 47.3532 22.378 48.8262 21.4805 50.1002C20.597 51.361 19.3711 52.3503 17.8037 53.067C16.2364 53.7702 14.4194 54.1216 12.3535 54.1216H0V24.7779H9.85352ZM31.1084 54.1216H24.9746V24.7779H31.1084V54.1216ZM55.8008 40.7242L58.2588 43.9293H58.4512L58.3018 37.2994V24.7779H64.4141V54.1216H59.9473L46.6963 37.9566L44.1738 34.732H44.0029L44.1094 41.5005V54.1216H37.9971V24.7779H42.4639L55.8008 40.7242ZM87.9971 29.8941H80.1523V54.1216H74.04V29.8941H66.1748V24.7779H87.9971V29.8941ZM141.562 40.7242L144.02 43.9293H144.212L144.062 37.2994V24.7779H150.175V54.1216H145.708L132.456 37.9566L129.935 34.732H129.763L129.87 41.5005V54.1216H123.757V24.7779H128.225L141.562 40.7242ZM6.07031 49.105H12.1826C13.5363 49.105 14.6339 48.76 15.4746 48.0699C16.3295 47.3665 16.7568 46.4041 16.7568 45.1832C16.7568 44.0153 16.3006 43.1059 15.3887 42.4556C14.491 41.7922 13.2938 41.4605 11.7979 41.4605H6.07031V49.105ZM6.07031 37.0406H10.3232C11.1781 37.0406 11.9118 36.8815 12.5244 36.563C13.1514 36.2313 13.6293 35.7865 13.957 35.2291C14.2846 34.6585 14.4482 34.0212 14.4482 33.3179C14.4481 32.1237 14.0353 31.2411 13.209 30.6705C12.3968 30.0865 11.2991 29.7945 9.91699 29.7945H6.07031V37.0406Z" fill="black"/>
<path fill-rule="evenodd" clip-rule="evenodd" d="M104.717 47.1271V39.1152L105.747 39.5984L111.55 42.3091L120.364 54.4403L104.717 47.1271Z" fill="#029CFE"/>
<path d="M118.244 37.2983L120.364 54.4403L111.55 42.3091L110.762 35.9531L110.624 34.8235L118.244 37.2983Z" fill="#035BFB"/>
<path fill-rule="evenodd" clip-rule="evenodd" d="M94.5868 35.9531L93.7997 42.3091L84.9849 54.4403L87.1058 37.3005L94.7252 34.8235L94.5868 35.9531Z" fill="#BEBEBE"/>
<path d="M84.9849 54.4403L93.7997 42.3091L99.6022 39.5984L100.634 39.1152V47.1271L84.9849 54.4403Z" fill="#999999"/>
<path d="M112.663 30.1078L117.035 25.4282L131.296 20.7939L119.505 33.4173L111.885 30.9403L112.663 30.1078Z" fill="#FE01F9"/>
<path fill-rule="evenodd" clip-rule="evenodd" d="M109.628 23.9946L114.338 17.5139L131.296 20.7939L117.035 25.4282L110.747 24.2123L109.628 23.9946Z" fill="#D504D5"/>
<path fill-rule="evenodd" clip-rule="evenodd" d="M99.5748 20.599L99.0236 21.5948L94.3145 15.1141L102.676 0V14.9961L99.5748 20.599Z" fill="#02A551"/>
<path d="M102.676 14.9961V0L111.035 15.1141L106.325 21.5948L105.774 20.599L102.676 14.9961Z" fill="#86C221"/>
<path d="M92.686 30.1078L93.4641 30.9403L85.8447 33.4173L74.0537 20.7939L88.3149 25.4282L92.686 30.1078Z" fill="#F8C304"/>
<path fill-rule="evenodd" clip-rule="evenodd" d="M94.6028 24.2123L88.3149 25.4282L74.0537 20.7939L91.012 17.5139L95.7211 23.9946L94.6028 24.2123Z" fill="#FECA06"/>
<path d="M190.917 54.4449C191.125 52.805 191.327 51.1931 191.522 49.6093C191.716 48.0114 191.925 46.2804 192.147 44.4163L193.377 34.5559C193.613 32.7198 193.822 31.0168 194.003 29.447C194.197 27.8772 194.406 26.2162 194.628 24.4642H197.568C198.499 26.7068 199.388 28.8793 200.236 30.9818C201.098 33.0842 201.953 35.1726 202.8 37.247L207.825 49.5672H208.075L213.079 37.247C213.926 35.1586 214.774 33.0702 215.622 30.9818C216.47 28.8933 217.353 26.7208 218.27 24.4642H221.209C221.418 26.1882 221.612 27.8421 221.793 29.426C221.988 30.9958 222.196 32.7057 222.419 34.5559L223.628 44.5004C223.85 46.3225 224.052 48.0184 224.232 49.5883C224.427 51.1441 224.622 52.7629 224.816 54.4449H222.022C221.675 51.6276 221.348 48.9575 221.043 46.4346C220.751 43.8977 220.473 41.5289 220.209 39.3284L219.062 29.8675H218.833L214.746 40.0643C213.746 42.5451 212.745 45.026 211.744 47.5069C210.758 49.9877 209.833 52.3004 208.972 54.4449H206.949C206.407 53.0993 205.81 51.6276 205.156 50.0298C204.503 48.4179 203.829 46.764 203.134 45.068C202.453 43.3721 201.779 41.7252 201.112 40.1273L196.942 29.8675H196.713L195.587 39.3284C195.323 41.5149 195.038 43.8837 194.732 46.4346C194.426 48.9715 194.107 51.6416 193.773 54.4449H190.917Z" fill="#A7A7A7"/>
<path d="M228.069 54.4449C228.069 52.7629 228.069 51.1441 228.069 49.5883C228.069 48.0325 228.069 46.3365 228.069 44.5004V34.4718C228.069 32.6076 228.069 30.8977 228.069 29.3419C228.069 27.772 228.069 26.1462 228.069 24.4642C229.181 24.4642 230.599 24.4642 232.322 24.4642C234.046 24.4642 236.006 24.4642 238.202 24.4642C240.425 24.4642 242.26 24.7656 243.705 25.3683C245.151 25.971 246.228 26.889 246.937 28.1224C247.646 29.3559 248 30.9187 248 32.8109C248 34.6049 247.667 36.2028 246.999 37.6044C246.346 38.992 245.227 40.0923 243.643 40.9052C242.058 41.7041 239.883 42.1036 237.117 42.1036C236.409 42.1036 235.651 42.1036 234.845 42.1036C234.053 42.1036 233.274 42.1036 232.51 42.1036C231.759 42.1036 231.113 42.1036 230.571 42.1036V39.6227H236.638C238.57 39.6227 240.154 39.3985 241.391 38.95C242.628 38.4874 243.539 37.7586 244.122 36.7634C244.72 35.7543 245.019 34.4438 245.019 32.8319C245.019 31.4863 244.796 30.4211 244.352 29.6362C243.907 28.8513 243.33 28.2696 242.621 27.8912C241.926 27.5127 241.169 27.2675 240.349 27.1553C239.543 27.0432 238.764 26.9871 238.014 26.9871H229.529L230.967 24.8637C230.967 26.5456 230.967 28.1715 230.967 29.7413C230.967 31.3111 230.967 33.0211 230.967 34.8712V44.5004C230.967 46.3365 230.967 48.0325 230.967 49.5883C230.967 51.1441 230.967 52.7629 230.967 54.4449H228.069Z" fill="#A7A7A7"/>
<path d="M27.1025 71.81C27.1025 71.2629 27.1025 70.7363 27.1025 70.2302C27.1025 69.7241 27.1025 69.1725 27.1025 68.5752V65.3131C27.1025 64.7068 27.1025 64.1506 27.1025 63.6445C27.1025 63.1339 27.1025 62.605 27.1025 62.0579H32.891V62.8991C32.4285 62.8991 31.9319 62.8991 31.4014 62.8991C30.8754 62.8991 30.2518 62.8991 29.5308 62.8991H27.6331L28.048 62.1878C28.048 62.7349 28.048 63.2638 28.048 63.7744C28.048 64.2805 28.048 64.839 28.048 65.4499V68.5752C28.048 69.1725 28.048 69.7241 28.048 70.2302C28.048 70.7363 28.048 71.2629 28.048 71.81H27.1025ZM27.8235 67.3169V66.4962H29.6261C30.2654 66.4962 30.8141 66.4962 31.2721 66.4962C31.7347 66.4962 32.1791 66.4962 32.6053 66.4962V67.3169C32.1519 67.3169 31.6961 67.3169 31.2381 67.3169C30.7801 67.3169 30.2405 67.3169 29.6193 67.3169H27.8235Z" fill="#A7A7A7"/>
<path d="M33.4447 71.81C33.6397 71.2811 33.8438 70.7294 34.0569 70.155C34.27 69.576 34.4741 69.0243 34.6691 68.5L35.9002 65.1558C36.1224 64.5586 36.3219 64.0161 36.4988 63.5282C36.6802 63.0404 36.8616 62.5503 37.043 62.0579H38.3217C38.5031 62.5594 38.6822 63.0518 38.8591 63.5351C39.0359 64.0183 39.2332 64.5609 39.4508 65.1627L40.6752 68.5205C40.8702 69.0585 41.072 69.6124 41.2806 70.1823C41.4892 70.7477 41.6864 71.2902 41.8723 71.81H40.8793C40.6707 71.2264 40.4553 70.6269 40.2331 70.0114C40.0154 69.3913 39.8091 68.8055 39.6141 68.2538L37.73 62.9606H37.6211L35.7234 68.2059C35.5193 68.7758 35.3039 69.3731 35.0772 69.9977C34.855 70.6177 34.6373 71.2218 34.4242 71.81H33.4447ZM35.0976 69.2454L35.1656 68.4658H40.2399L40.2943 69.2454H35.0976Z" fill="#A7A7A7"/>
<path d="M47.5498 71.9536C46.788 71.9536 46.101 71.8259 45.4889 71.5706C44.8812 71.3153 44.3643 70.962 43.938 70.5106C43.5118 70.0547 43.1853 69.5213 42.9585 68.9103C42.7318 68.2948 42.6184 67.6292 42.6184 66.9134C42.6184 65.9286 42.8202 65.0578 43.2238 64.301C43.6274 63.5442 44.1851 62.9538 44.8971 62.5298C45.6136 62.1012 46.4366 61.8869 47.3662 61.8869C47.6882 61.8869 48.001 61.9097 48.3049 61.9553C48.6087 62.0009 48.8944 62.0647 49.1619 62.1468C49.434 62.2289 49.6834 62.3155 49.9101 62.4067C50.1369 62.4978 50.3318 62.589 50.4951 62.6802L50.3999 63.624C50.0507 63.4188 49.7083 63.2524 49.3728 63.1247C49.0372 62.9971 48.7062 62.9036 48.3797 62.8443C48.0577 62.7851 47.7403 62.7554 47.4274 62.7554C46.6837 62.7554 46.0239 62.9264 45.448 63.2684C44.8767 63.6057 44.4277 64.0867 44.1013 64.7113C43.7748 65.3314 43.6115 66.0677 43.6115 66.9203C43.6115 67.4947 43.6954 68.035 43.8632 68.541C44.031 69.0425 44.2826 69.4848 44.6182 69.8678C44.9583 70.2507 45.3778 70.5516 45.8766 70.7705C46.3799 70.9848 46.9603 71.0919 47.6179 71.0919C47.8537 71.0919 48.0872 71.0782 48.3185 71.0509C48.5543 71.019 48.7878 70.9734 49.0191 70.9141C49.2503 70.8503 49.4771 70.7659 49.6993 70.6611C49.9215 70.5562 50.1346 70.4308 50.3386 70.2849L50.4339 71.2218C50.2434 71.3449 50.0326 71.4544 49.8013 71.5501C49.5746 71.6413 49.3365 71.7165 49.0871 71.7758C48.8422 71.835 48.5883 71.8784 48.3253 71.9057C48.0668 71.9376 47.8083 71.9536 47.5498 71.9536Z" fill="#A7A7A7"/>
<path d="M52.5703 71.81C52.5703 71.2629 52.5703 70.7363 52.5703 70.2302C52.5703 69.7241 52.5703 69.1725 52.5703 68.5752V65.3131C52.5703 64.7068 52.5703 64.1506 52.5703 63.6445C52.5703 63.1339 52.5703 62.605 52.5703 62.0579H53.5362C53.5362 62.605 53.5362 63.1339 53.5362 63.6445C53.5362 64.1506 53.5362 64.7068 53.5362 65.3131V68.5752C53.5362 69.1725 53.5362 69.7241 53.5362 70.2302C53.5362 70.7363 53.5362 71.2629 53.5362 71.81H52.5703Z" fill="#A7A7A7"/>
<path d="M56.2234 71.81C56.2234 71.2629 56.2234 70.7363 56.2234 70.2302C56.2234 69.7241 56.2234 69.1725 56.2234 68.5752V65.3131C56.2234 64.7068 56.2234 64.1506 56.2234 63.6445C56.2234 63.1339 56.2234 62.605 56.2234 62.0579H57.1825C57.1825 62.605 57.1825 63.1339 57.1825 63.6445C57.1825 64.1506 57.1825 64.7068 57.1825 65.3131V68.4316C57.1825 69.0289 57.1825 69.5805 57.1825 70.0866C57.1825 70.5927 57.1825 71.1193 57.1825 71.6664L56.8016 70.9414H58.5497C59.0802 70.9414 59.5496 70.9414 59.9577 70.9414C60.3658 70.9414 60.7422 70.9414 61.0868 70.9414C61.436 70.9414 61.7919 70.9414 62.1547 70.9414V71.81H56.2234Z" fill="#A7A7A7"/>
<path d="M63.9955 71.81C63.9955 71.2629 63.9955 70.7363 63.9955 70.2302C63.9955 69.7241 63.9955 69.1725 63.9955 68.5752V65.3131C63.9955 64.7068 63.9955 64.1506 63.9955 63.6445C63.9955 63.1339 63.9955 62.605 63.9955 62.0579H64.9614C64.9614 62.605 64.9614 63.1339 64.9614 63.6445C64.9614 64.1506 64.9614 64.7068 64.9614 65.3131V68.5752C64.9614 69.1725 64.9614 69.7241 64.9614 70.2302C64.9614 70.7363 64.9614 71.2629 64.9614 71.81H63.9955Z" fill="#A7A7A7"/>
<path d="M70.1857 71.81C70.1857 71.2629 70.1857 70.7363 70.1857 70.2302C70.1857 69.7241 70.1857 69.1725 70.1857 68.5752V65.4499C70.1857 64.839 70.1857 64.2805 70.1857 63.7744C70.1857 63.2638 70.1857 62.7349 70.1857 62.1878L70.5734 62.9264H69.4579C68.9001 62.9264 68.4058 62.9264 67.975 62.9264C67.5488 62.9264 67.1407 62.9264 66.7507 62.9264V62.0579H74.5661V62.9264C74.1807 62.9264 73.7726 62.9264 73.3418 62.9264C72.9155 62.9264 72.4213 62.9264 71.859 62.9264H70.7434L71.138 62.1878C71.138 62.7349 71.138 63.2638 71.138 63.7744C71.138 64.2805 71.138 64.839 71.138 65.4499V68.5752C71.138 69.1725 71.138 69.7241 71.138 70.2302C71.138 70.7363 71.138 71.2629 71.138 71.81H70.1857Z" fill="#A7A7A7"/>
<path d="M78.9486 67.8982L76.7992 64.3557C76.577 63.9819 76.3593 63.6194 76.1462 63.2684C75.9331 62.9173 75.6882 62.5138 75.4116 62.0579H76.5135C76.7811 62.5138 77.0101 62.9059 77.2005 63.2342C77.3955 63.5579 77.5792 63.8656 77.7515 64.1574C77.9238 64.4446 78.1142 64.766 78.3228 65.1217L79.3499 66.845H79.4588L80.4518 65.1764C80.6695 64.8071 80.869 64.472 81.0504 64.1711C81.2318 63.8656 81.42 63.5487 81.615 63.2205C81.8145 62.8922 82.048 62.5047 82.3156 62.0579H83.3971C83.1568 62.45 82.921 62.8375 82.6897 63.2205C82.4584 63.6034 82.2317 63.9796 82.0095 64.3489L79.8533 67.8982H78.9486ZM78.9214 71.81C78.9214 71.2629 78.9214 70.7363 78.9214 70.2302C78.9214 69.7241 78.9214 69.1725 78.9214 68.5752V67.0981H79.8805V68.5752C79.8805 69.1725 79.8805 69.7241 79.8805 70.2302C79.8805 70.7363 79.8805 71.2629 79.8805 71.81H78.9214Z" fill="#A7A7A7"/>
<path d="M90.457 71.9467C90.0489 71.9467 89.6408 71.9103 89.2326 71.8373C88.8291 71.7644 88.4549 71.6709 88.1103 71.5569C87.7702 71.4384 87.4959 71.3199 87.2873 71.2013L87.3961 70.2781C87.6999 70.4422 88.0128 70.5858 88.3348 70.7089C88.6567 70.832 88.99 70.9278 89.3347 70.9962C89.6793 71.0645 90.0375 71.0987 90.4094 71.0987C90.8356 71.0987 91.2233 71.0372 91.5725 70.9141C91.9217 70.791 92.1983 70.5949 92.4023 70.326C92.6109 70.057 92.7152 69.6968 92.7152 69.2454C92.7152 68.8761 92.6132 68.573 92.4091 68.3359C92.2051 68.0942 91.9081 67.8868 91.5181 67.7135C91.1327 67.5357 90.6656 67.3579 90.1169 67.1801C89.4911 66.9841 88.9583 66.7721 88.5184 66.5441C88.0786 66.3162 87.743 66.0381 87.5117 65.7098C87.2805 65.3815 87.1648 64.9689 87.1648 64.472C87.1648 63.9841 87.2827 63.5465 87.5185 63.1589C87.7543 62.7668 88.1035 62.4568 88.566 62.2289C89.0286 61.9963 89.5977 61.8801 90.2733 61.8801C90.559 61.8801 90.8402 61.9029 91.1168 61.9485C91.3934 61.9895 91.6564 62.0465 91.9058 62.1194C92.1597 62.1878 92.3887 62.2676 92.5928 62.3588C92.7969 62.4454 92.9692 62.5343 93.1097 62.6255L93.0009 63.5693C92.7288 63.3778 92.4386 63.2228 92.1303 63.1042C91.8264 62.9811 91.5226 62.8899 91.2188 62.8307C90.915 62.7714 90.6293 62.7418 90.3618 62.7418C89.9763 62.7418 89.6158 62.801 89.2803 62.9196C88.9492 63.0381 88.6794 63.2228 88.4708 63.4735C88.2668 63.7243 88.1647 64.048 88.1647 64.4446C88.1647 64.7729 88.2509 65.0487 88.4232 65.2721C88.5955 65.4909 88.8631 65.687 89.2258 65.8602C89.5886 66.0335 90.0579 66.2136 90.6338 66.4005C91.4138 66.6513 92.026 66.9043 92.4704 67.1596C92.9193 67.4104 93.2367 67.6976 93.4226 68.0213C93.6131 68.345 93.7083 68.7394 93.7083 69.2044C93.7083 69.715 93.595 70.1778 93.3682 70.5927C93.1415 71.0076 92.7878 71.3381 92.3071 71.5843C91.8264 71.8259 91.2097 71.9467 90.457 71.9467Z" fill="#A7A7A7"/>
<path d="M95.6269 71.81C95.6269 71.2629 95.6269 70.7363 95.6269 70.2302C95.6269 69.7241 95.6269 69.1725 95.6269 68.5752V65.3131C95.6269 64.7068 95.6269 64.1506 95.6269 63.6445C95.6269 63.1339 95.6269 62.605 95.6269 62.0579H101.538V62.8991C101.075 62.8991 100.579 62.8991 100.048 62.8991C99.5176 62.8991 98.8941 62.8991 98.1776 62.8991H96.0486L96.5656 62.1878C96.5656 62.7349 96.5656 63.2638 96.5656 63.7744C96.5656 64.285 96.5656 64.8413 96.5656 65.4431V68.4385C96.5656 69.0311 96.5656 69.5805 96.5656 70.0866C96.5656 70.5927 96.5656 71.1193 96.5656 71.6664L96.0894 70.9688H98.2593C98.8714 70.9688 99.4473 70.9688 99.9869 70.9688C100.527 70.9688 101.046 70.9688 101.545 70.9688V71.81H95.6269ZM96.3615 67.269V66.4552H98.2797C98.9145 66.4552 99.4609 66.4552 99.9189 66.4552C100.381 66.4552 100.826 66.4552 101.252 66.4552V67.269C100.803 67.269 100.347 67.269 99.8849 67.269C99.4269 67.269 98.8873 67.269 98.2661 67.269H96.3615Z" fill="#A7A7A7"/>
<path d="M103.691 71.81C103.691 71.2629 103.691 70.7363 103.691 70.2302C103.691 69.7241 103.691 69.1725 103.691 68.5752V65.3131C103.691 64.7068 103.691 64.1506 103.691 63.6445C103.691 63.1339 103.691 62.605 103.691 62.0579C103.94 62.0579 104.226 62.0579 104.548 62.0579C104.87 62.0579 105.221 62.0579 105.602 62.0579C105.988 62.0579 106.405 62.0579 106.854 62.0579C107.579 62.0579 108.18 62.1468 108.656 62.3246C109.132 62.4978 109.488 62.776 109.724 63.1589C109.96 63.5373 110.078 64.0343 110.078 64.6498C110.078 65.1741 109.976 65.6551 109.772 66.0928C109.572 66.5304 109.232 66.8815 108.752 67.1459C108.271 67.4104 107.616 67.5449 106.786 67.5494L107.058 67.1117L108.643 69.0266C108.888 69.3229 109.148 69.6398 109.425 69.9772C109.702 70.31 109.971 70.636 110.234 70.9551C110.502 71.2743 110.738 71.5592 110.942 71.81H109.806C109.461 71.3905 109.128 70.987 108.806 70.5995C108.489 70.2074 108.173 69.8222 107.861 69.4438L106.092 67.2554L106.684 67.6999H104.466V66.8929H106.371C106.992 66.8929 107.505 66.8222 107.908 66.6809C108.312 66.535 108.609 66.3048 108.799 65.9902C108.994 65.671 109.092 65.2516 109.092 64.7318C109.092 64.285 109.019 63.9363 108.874 63.6855C108.733 63.4348 108.548 63.2524 108.316 63.1384C108.09 63.0244 107.845 62.9538 107.582 62.9264C107.319 62.8945 107.062 62.8785 106.813 62.8785H104.017L104.63 62.1878C104.63 62.744 104.63 63.2775 104.63 63.7881C104.63 64.2942 104.63 64.8458 104.63 65.4431V68.5752C104.63 69.1725 104.63 69.7241 104.63 70.2302C104.63 70.7363 104.63 71.2629 104.63 71.81H103.691Z" fill="#A7A7A7"/>
<path d="M115.171 71.81C114.995 71.3221 114.804 70.8024 114.6 70.2507C114.396 69.6945 114.206 69.1839 114.029 68.7188L112.9 65.6551C112.773 65.3086 112.632 64.9324 112.478 64.5267C112.328 64.1164 112.176 63.7015 112.022 63.282C111.868 62.858 111.718 62.45 111.573 62.0579H112.628C112.886 62.7782 113.163 63.5487 113.457 64.3694C113.757 65.1855 114.036 65.9537 114.294 66.6741L115.777 70.7978H115.886L117.368 66.6467C117.632 65.9172 117.904 65.1581 118.185 64.3694C118.47 63.5761 118.747 62.8056 119.015 62.0579H120.042C119.897 62.4454 119.747 62.8489 119.593 63.2684C119.443 63.6878 119.293 64.1027 119.144 64.513C118.999 64.9188 118.86 65.2972 118.729 65.6482L117.607 68.7325C117.434 69.2021 117.248 69.7082 117.049 70.2507C116.854 70.7933 116.666 71.313 116.484 71.81H115.171Z" fill="#A7A7A7"/>
<path d="M121.786 71.81C121.786 71.2629 121.786 70.7363 121.786 70.2302C121.786 69.7241 121.786 69.1725 121.786 68.5752V65.3131C121.786 64.7068 121.786 64.1506 121.786 63.6445C121.786 63.1339 121.786 62.605 121.786 62.0579H122.751C122.751 62.605 122.751 63.1339 122.751 63.6445C122.751 64.1506 122.751 64.7068 122.751 65.3131V68.5752C122.751 69.1725 122.751 69.7241 122.751 70.2302C122.751 70.7363 122.751 71.2629 122.751 71.81H121.786Z" fill="#A7A7A7"/>
<path d="M129.758 71.9536C128.996 71.9536 128.309 71.8259 127.697 71.5706C127.089 71.3153 126.572 70.962 126.146 70.5106C125.72 70.0547 125.393 69.5213 125.167 68.9103C124.94 68.2948 124.826 67.6292 124.826 66.9134C124.826 65.9286 125.028 65.0578 125.432 64.301C125.835 63.5442 126.393 62.9538 127.105 62.5298C127.822 62.1012 128.645 61.8869 129.574 61.8869C129.896 61.8869 130.209 61.9097 130.513 61.9553C130.817 62.0009 131.102 62.0647 131.37 62.1468C131.642 62.2289 131.891 62.3155 132.118 62.4067C132.345 62.4978 132.54 62.589 132.703 62.6802L132.608 63.624C132.259 63.4188 131.916 63.2524 131.581 63.1247C131.245 62.9971 130.914 62.9036 130.588 62.8443C130.266 62.7851 129.948 62.7554 129.635 62.7554C128.892 62.7554 128.232 62.9264 127.656 63.2684C127.085 63.6057 126.636 64.0867 126.309 64.7113C125.983 65.3314 125.819 66.0677 125.819 66.9203C125.819 67.4947 125.903 68.035 126.071 68.541C126.239 69.0425 126.491 69.4848 126.826 69.8678C127.166 70.2507 127.586 70.5516 128.085 70.7705C128.588 70.9848 129.168 71.0919 129.826 71.0919C130.062 71.0919 130.295 71.0782 130.526 71.0509C130.762 71.019 130.996 70.9734 131.227 70.9141C131.458 70.8503 131.685 70.7659 131.907 70.6611C132.129 70.5562 132.343 70.4308 132.547 70.2849L132.642 71.2218C132.451 71.3449 132.241 71.4544 132.009 71.5501C131.783 71.6413 131.544 71.7165 131.295 71.7758C131.05 71.835 130.796 71.8784 130.533 71.9057C130.275 71.9376 130.016 71.9536 129.758 71.9536Z" fill="#A7A7A7"/>
<path d="M134.765 71.81C134.765 71.2629 134.765 70.7363 134.765 70.2302C134.765 69.7241 134.765 69.1725 134.765 68.5752V65.3131C134.765 64.7068 134.765 64.1506 134.765 63.6445C134.765 63.1339 134.765 62.605 134.765 62.0579H140.676V62.8991C140.213 62.8991 139.717 62.8991 139.186 62.8991C138.655 62.8991 138.032 62.8991 137.315 62.8991H135.186L135.703 62.1878C135.703 62.7349 135.703 63.2638 135.703 63.7744C135.703 64.285 135.703 64.8413 135.703 65.4431V68.4385C135.703 69.0311 135.703 69.5805 135.703 70.0866C135.703 70.5927 135.703 71.1193 135.703 71.6664L135.227 70.9688H137.397C138.009 70.9688 138.585 70.9688 139.125 70.9688C139.664 70.9688 140.184 70.9688 140.682 70.9688V71.81H134.765ZM135.499 67.269V66.4552H137.417C138.052 66.4552 138.599 66.4552 139.057 66.4552C139.519 66.4552 139.964 66.4552 140.39 66.4552V67.269C139.941 67.269 139.485 67.269 139.023 67.269C138.565 67.269 138.025 67.269 137.404 67.269H135.499Z" fill="#A7A7A7"/>
<path d="M145.577 71.9467C145.169 71.9467 144.76 71.9103 144.352 71.8373C143.949 71.7644 143.575 71.6709 143.23 71.5569C142.89 71.4384 142.616 71.3199 142.407 71.2013L142.516 70.2781C142.82 70.4422 143.133 70.5858 143.455 70.7089C143.776 70.832 144.11 70.9278 144.454 70.9962C144.799 71.0645 145.157 71.0987 145.529 71.0987C145.955 71.0987 146.343 71.0372 146.692 70.9141C147.041 70.791 147.318 70.5949 147.522 70.326C147.731 70.057 147.835 69.6968 147.835 69.2454C147.835 68.8761 147.733 68.573 147.529 68.3359C147.325 68.0942 147.028 67.8868 146.638 67.7135C146.252 67.5357 145.785 67.3579 145.237 67.1801C144.611 66.9841 144.078 66.7721 143.638 66.5441C143.198 66.3162 142.863 66.0381 142.631 65.7098C142.4 65.3815 142.285 64.9689 142.285 64.472C142.285 63.9841 142.402 63.5465 142.638 63.1589C142.874 62.7668 143.223 62.4568 143.686 62.2289C144.148 61.9963 144.717 61.8801 145.393 61.8801C145.679 61.8801 145.96 61.9029 146.237 61.9485C146.513 61.9895 146.776 62.0465 147.026 62.1194C147.279 62.1878 147.508 62.2676 147.713 62.3588C147.917 62.4454 148.089 62.5343 148.229 62.6255L148.121 63.5693C147.849 63.3778 147.558 63.2228 147.25 63.1042C146.946 62.9811 146.642 62.8899 146.339 62.8307C146.035 62.7714 145.749 62.7418 145.481 62.7418C145.096 62.7418 144.736 62.801 144.4 62.9196C144.069 63.0381 143.799 63.2228 143.591 63.4735C143.386 63.7243 143.284 64.048 143.284 64.4446C143.284 64.7729 143.371 65.0487 143.543 65.2721C143.715 65.4909 143.983 65.687 144.346 65.8602C144.708 66.0335 145.178 66.2136 145.754 66.4005C146.534 66.6513 147.146 66.9043 147.59 67.1596C148.039 67.4104 148.356 67.6976 148.542 68.0213C148.733 68.345 148.828 68.7394 148.828 69.2044C148.828 69.715 148.715 70.1778 148.488 70.5927C148.261 71.0076 147.908 71.3381 147.427 71.5843C146.946 71.8259 146.329 71.9467 145.577 71.9467Z" fill="#A7A7A7"/>
<path d="M157.67 71.9536C156.908 71.9536 156.221 71.8259 155.609 71.5706C155.001 71.3153 154.484 70.962 154.058 70.5106C153.632 70.0547 153.305 69.5213 153.078 68.9103C152.852 68.2948 152.738 67.6292 152.738 66.9134C152.738 65.9286 152.94 65.0578 153.344 64.301C153.747 63.5442 154.305 62.9538 155.017 62.5298C155.733 62.1012 156.556 61.8869 157.486 61.8869C157.808 61.8869 158.121 61.9097 158.425 61.9553C158.729 62.0009 159.014 62.0647 159.282 62.1468C159.554 62.2289 159.803 62.3155 160.03 62.4067C160.257 62.4978 160.452 62.589 160.615 62.6802L160.52 63.624C160.171 63.4188 159.828 63.2524 159.493 63.1247C159.157 62.9971 158.826 62.9036 158.5 62.8443C158.178 62.7851 157.86 62.7554 157.547 62.7554C156.804 62.7554 156.144 62.9264 155.568 63.2684C154.997 63.6057 154.548 64.0867 154.221 64.7113C153.895 65.3314 153.731 66.0677 153.731 66.9203C153.731 67.4947 153.815 68.035 153.983 68.541C154.151 69.0425 154.403 69.4848 154.738 69.8678C155.078 70.2507 155.498 70.5516 155.996 70.7705C156.5 70.9848 157.08 71.0919 157.738 71.0919C157.974 71.0919 158.207 71.0782 158.438 71.0509C158.674 71.019 158.908 70.9734 159.139 70.9141C159.37 70.8503 159.597 70.7659 159.819 70.6611C160.041 70.5562 160.254 70.4308 160.459 70.2849L160.554 71.2218C160.363 71.3449 160.152 71.4544 159.921 71.5501C159.694 71.6413 159.456 71.7165 159.207 71.7758C158.962 71.835 158.708 71.8784 158.445 71.9057C158.187 71.9376 157.928 71.9536 157.67 71.9536Z" fill="#A7A7A7"/>
<path d="M166.948 71.9536C166.137 71.9536 165.425 71.8214 164.812 71.5569C164.205 71.2879 163.697 70.9209 163.289 70.4559C162.881 69.9909 162.575 69.4552 162.371 68.8488C162.166 68.2424 162.064 67.5996 162.064 66.9203C162.064 65.9765 162.255 65.1239 162.636 64.3626C163.021 63.6012 163.574 62.9994 164.295 62.5571C165.021 62.1103 165.892 61.8869 166.907 61.8869C167.683 61.8869 168.37 62.0169 168.968 62.2767C169.567 62.532 170.07 62.8922 170.478 63.3573C170.891 63.8177 171.202 64.3512 171.41 64.9575C171.623 65.5639 171.73 66.2181 171.73 66.9203C171.73 67.8777 171.537 68.7371 171.152 69.4985C170.771 70.2553 170.222 70.8548 169.506 71.2971C168.794 71.7347 167.941 71.9536 166.948 71.9536ZM166.914 71.0919C167.581 71.0919 168.154 70.9779 168.635 70.75C169.116 70.522 169.51 70.212 169.819 69.8199C170.132 69.4232 170.363 68.9764 170.512 68.4795C170.662 67.9825 170.737 67.4628 170.737 66.9203C170.737 66.3367 170.655 65.7919 170.492 65.2858C170.333 64.7797 170.093 64.3375 169.771 63.9591C169.454 63.5761 169.057 63.2775 168.581 63.0632C168.105 62.8489 167.549 62.7418 166.914 62.7418C166.261 62.7418 165.692 62.8557 165.207 63.0837C164.726 63.3071 164.327 63.6148 164.01 64.0069C163.692 64.399 163.454 64.8458 163.296 65.3473C163.137 65.8443 163.058 66.3686 163.058 66.9203C163.058 67.4719 163.135 67.9985 163.289 68.5C163.443 69.0015 163.676 69.4483 163.989 69.8404C164.302 70.2279 164.701 70.5334 165.187 70.7568C165.672 70.9802 166.248 71.0919 166.914 71.0919Z" fill="#A7A7A7"/>
<path d="M173.176 71.81C173.245 71.2765 173.31 70.7522 173.374 70.2371C173.437 69.7173 173.505 69.1542 173.578 68.5479L173.979 65.3405C174.056 64.7432 174.124 64.1893 174.183 63.6787C174.247 63.168 174.315 62.6278 174.387 62.0579H175.346C175.65 62.7874 175.94 63.494 176.217 64.1779C176.498 64.8618 176.777 65.5411 177.054 66.2159L178.693 70.2234H178.774L180.407 66.2159C180.684 65.5365 180.96 64.8572 181.237 64.1779C181.513 63.4986 181.801 62.7919 182.101 62.0579H183.06C183.128 62.6187 183.191 63.1567 183.25 63.6718C183.314 64.1825 183.382 64.7387 183.454 65.3405L183.849 68.5752C183.921 69.1679 183.987 69.7196 184.046 70.2302C184.109 70.7363 184.173 71.2629 184.236 71.81H183.325C183.212 70.8936 183.105 70.0251 183.005 69.2044C182.91 68.3792 182.819 67.6087 182.733 66.8929L182.359 63.8155H182.284L180.951 67.1323C180.625 67.9392 180.298 68.7462 179.972 69.5532C179.65 70.3601 179.348 71.1124 179.067 71.81H178.407C178.23 71.3723 178.035 70.8936 177.822 70.3738C177.609 69.8495 177.389 69.3115 177.162 68.7599C176.94 68.2082 176.72 67.6725 176.503 67.1528L175.142 63.8155H175.067L174.7 66.8929C174.614 67.6041 174.521 68.3746 174.421 69.2044C174.321 70.0296 174.217 70.8981 174.108 71.81H173.176Z" fill="#A7A7A7"/>
<path d="M186.55 71.81C186.55 71.2629 186.55 70.7363 186.55 70.2302C186.55 69.7241 186.55 69.1725 186.55 68.5752V65.3131C186.55 64.7068 186.55 64.1506 186.55 63.6445C186.55 63.1339 186.55 62.605 186.55 62.0579C186.913 62.0579 187.375 62.0579 187.937 62.0579C188.5 62.0579 189.139 62.0579 189.856 62.0579C190.581 62.0579 191.18 62.1559 191.651 62.352C192.123 62.548 192.474 62.8466 192.706 63.2478C192.937 63.649 193.053 64.1574 193.053 64.7729C193.053 65.3565 192.944 65.8762 192.726 66.3321C192.513 66.7835 192.148 67.1414 191.631 67.4058C191.114 67.6657 190.404 67.7956 189.502 67.7956C189.271 67.7956 189.024 67.7956 188.76 67.7956C188.502 67.7956 188.248 67.7956 187.999 67.7956C187.754 67.7956 187.543 67.7956 187.366 67.7956V66.9886H189.345C189.976 66.9886 190.493 66.9157 190.896 66.7698C191.3 66.6193 191.597 66.3823 191.787 66.0586C191.982 65.7303 192.08 65.304 192.08 64.7797C192.08 64.342 192.007 63.9955 191.862 63.7402C191.717 63.4849 191.529 63.2957 191.298 63.1726C191.071 63.0495 190.824 62.9697 190.556 62.9333C190.293 62.8968 190.039 62.8785 189.794 62.8785H187.026L187.495 62.1878C187.495 62.7349 187.495 63.2638 187.495 63.7744C187.495 64.285 187.495 64.8413 187.495 65.4431V68.5752C187.495 69.1725 187.495 69.7241 187.495 70.2302C187.495 70.7363 187.495 71.2629 187.495 71.81H186.55Z" fill="#A7A7A7"/>
<path d="M193.384 71.81C193.579 71.2811 193.783 70.7294 193.996 70.155C194.209 69.576 194.413 69.0243 194.608 68.5L195.839 65.1558C196.061 64.5586 196.261 64.0161 196.438 63.5282C196.619 63.0404 196.8 62.5503 196.982 62.0579H198.261C198.442 62.5594 198.621 63.0518 198.798 63.5351C198.975 64.0183 199.172 64.5609 199.39 65.1627L200.614 68.5205C200.809 69.0585 201.011 69.6124 201.219 70.1823C201.428 70.7477 201.625 71.2902 201.811 71.81H200.818C200.61 71.2264 200.394 70.6269 200.172 70.0114C199.954 69.3913 199.748 68.8055 199.553 68.2538L197.669 62.9606H197.56L195.662 68.2059C195.458 68.7758 195.243 69.3731 195.016 69.9977C194.794 70.6177 194.576 71.2218 194.363 71.81H193.384ZM195.036 69.2454L195.105 68.4658H200.179L200.233 69.2454H195.036Z" fill="#A7A7A7"/>
<path d="M203.581 71.81C203.581 71.2629 203.581 70.7363 203.581 70.2302C203.581 69.7241 203.581 69.1725 203.581 68.5752V65.3131C203.581 64.7068 203.581 64.1506 203.581 63.6445C203.581 63.1339 203.581 62.605 203.581 62.0579H204.466C205.078 62.9196 205.667 63.7539 206.234 64.5609C206.805 65.3679 207.37 66.1634 207.928 66.9476L210.172 70.114H210.254V65.3131C210.254 64.7068 210.254 64.1506 210.254 63.6445C210.254 63.1339 210.254 62.605 210.254 62.0579H211.172C211.172 62.605 211.172 63.1339 211.172 63.6445C211.172 64.1506 211.172 64.7068 211.172 65.3131V68.5752C211.172 69.1725 211.172 69.7241 211.172 70.2302C211.172 70.7363 211.172 71.2629 211.172 71.81H210.308C209.801 71.0896 209.263 70.3305 208.696 69.5327C208.134 68.7348 207.513 67.8572 206.833 66.8997L204.581 63.7129H204.5V68.5752C204.5 69.1725 204.5 69.7241 204.5 70.2302C204.5 70.7363 204.5 71.2629 204.5 71.81H203.581Z" fill="#A7A7A7"/>
<path d="M216.449 67.8982L214.3 64.3557C214.077 63.9819 213.86 63.6194 213.647 63.2684C213.434 62.9173 213.189 62.5138 212.912 62.0579H214.014C214.281 62.5138 214.51 62.9059 214.701 63.2342C214.896 63.5579 215.08 63.8656 215.252 64.1574C215.424 64.4446 215.615 64.766 215.823 65.1217L216.85 66.845H216.959L217.952 65.1764C218.17 64.8071 218.369 64.472 218.551 64.1711C218.732 63.8656 218.92 63.5487 219.115 63.2205C219.315 62.8922 219.548 62.5047 219.816 62.0579H220.898C220.657 62.45 220.421 62.8375 220.19 63.2205C219.959 63.6034 219.732 63.9796 219.51 64.3489L217.354 67.8982H216.449ZM216.422 71.81C216.422 71.2629 216.422 70.7363 216.422 70.2302C216.422 69.7241 216.422 69.1725 216.422 68.5752V67.0981H217.381V68.5752C217.381 69.1725 217.381 69.7241 217.381 70.2302C217.381 70.7363 217.381 71.2629 217.381 71.81H216.422Z" fill="#A7A7A7"/>
</svg>
